<?xml version="1.0" encoding="UTF-8"?>
<svg version="1.1" viewBox="0 0 34 34" xmlns="http://www.w3.org/2000/svg" xmlns:xlink="http://www.w3.org/1999/xlink">
<title>ic_account_circle_black_24px</title>
<desc>Created using Figma</desc>
<g transform="translate(3288 2761)">
<use transform="translate(-3287.7 -2760.7)" fill="#FFFFFF" xlink:href="#a"/>
</g>
<defs>
<path id="a" d="m16.667 0c-9.2 0-16.667 7.4654-16.667 16.664 0 9.1985 7.4667 16.664 16.667 16.664 9.2 0 16.667-7.4654 16.667-16.664 0-9.1985-7.4666-16.664-16.667-16.664zm0 4.9992c2.7666 0 5 2.233 5 4.9992 0 2.7662-2.2334 4.9992-5 4.9992-2.7667 0-5-2.233-5-4.9992 0-2.7662 2.2333-4.9992 5-4.9992zm0 23.663c-4.1667 0-7.85-2.133-10-5.3658 0.05-3.3161 6.6666-5.1325 10-5.1325 3.3166 0 9.95 1.8164 10 5.1325-2.15 3.2328-5.8334 5.3658-10 5.3658z"/>
</defs>
</svg>
